<svg width="30" height="30" viewBox="0 0 30 30" fill="none" xmlns="http://www.w3.org/2000/svg">
<path d="M26.875 8.125H22.9125L20.625 5.625H13.125V8.125H19.525L21.8125 10.625H26.875V25.625H6.875V14.375H4.375V25.625C4.375 27 5.5 28.125 6.875 28.125H26.875C28.25 28.125 29.375 27 29.375 25.625V10.625C29.375 9.25 28.25 8.125 26.875 8.125ZM10.625 18.125C10.625 21.575 13.425 24.375 16.875 24.375C20.325 24.375 23.125 21.575 23.125 18.125C23.125 14.675 20.325 11.875 16.875 11.875C13.425 11.875 10.625 14.675 10.625 18.125ZM16.875 14.375C18.9375 14.375 20.625 16.0625 20.625 18.125C20.625 20.1875 18.9375 21.875 16.875 21.875C14.8125 21.875 13.125 20.1875 13.125 18.125C13.125 16.0625 14.8125 14.375 16.875 14.375ZM6.875 8.125H10.625V5.625H6.875V1.875H4.375V5.625H0.625V8.125H4.375V11.875H6.875V8.125Z" fill="black"/>
</svg>
