<svg xmlns="http://www.w3.org/2000/svg" width="75" height="16" fill="none">
<path fill="#303030" d="m8.438 10.347-8 3.522v-2.3l5.477-2.2-.074.12v-.284l.074.119L.437 7.125V4.824l8 3.523v2Zm6.692 1.717h13.408v1.728H15.13v-1.728Zm5.616-2.8h2.128v3.504h-2.128V9.264Zm-4.112-7.696h10.4v4.928h-8.256v2.496h-2.112v-4.16h8.256V3.248h-8.288v-1.68Zm.032 6.576H27.37v1.712H16.666V8.144Zm14.99-6.176h9.393v1.68h-9.392v-1.68Zm-1.36 9.792H43.69v1.728H30.297V11.76Zm9.633-9.792h2.112v1.76c0 2.08 0 4.096-.528 7.136l-2.128-.176c.544-2.848.544-4.96.544-6.96v-1.76Zm9.487-.336c2.256 0 3.888 2.048 3.888 5.28 0 3.264-1.632 5.312-3.888 5.312-2.256 0-3.888-2.048-3.888-5.312 0-3.232 1.632-5.28 3.888-5.28Zm0 1.936c-1.104 0-1.84 1.168-1.84 3.344 0 2.208.736 3.392 1.84 3.392s1.856-1.184 1.856-3.392c0-2.176-.752-3.344-1.856-3.344ZM54.92.608h2.144v14.816H54.92V.608Zm1.664 5.584h2.624v1.76h-2.624v-1.76Zm4.03.912h13.408v1.712H60.614V7.104Zm5.616.752h2.112v2.352H66.23V7.856Zm-.048 2.944h1.808v.256c0 2.16-2.016 3.968-5.824 4.32l-.688-1.6c3.232-.288 4.704-1.584 4.704-2.72V10.8Zm.384 0h1.808v.256c0 1.216 1.424 2.448 4.704 2.72l-.672 1.6c-3.792-.352-5.84-2.064-5.84-4.32V10.8ZM67.318.768c3.28 0 5.36 1.04 5.36 2.8 0 1.76-2.08 2.8-5.36 2.8-3.28 0-5.36-1.04-5.36-2.8 0-1.76 2.08-2.8 5.36-2.8Zm0 1.584c-2.048 0-3.168.4-3.168 1.216 0 .784 1.12 1.2 3.168 1.2 2.032 0 3.168-.416 3.168-1.2 0-.816-1.136-1.216-3.168-1.216Z"/>
</svg>