<svg xmlns="http://www.w3.org/2000/svg" width="78" height="16" fill="none"><path fill="#303030" d="m8.438 10.347-8 3.522v-2.3l5.477-2.2-.074.12v-.284l.074.119L.437 7.125V4.824l8 3.523v2Zm10.436-.731h2.128v2.4h-2.128v-2.4Zm6.48-9.008h2.128v14.816h-2.128V.608ZM15.45 12.96l-.256-1.712c2.688-.016 6.272-.016 9.392-.432l.144 1.536c-3.216.592-6.656.608-9.28.608Zm.032-10.72h8.912v1.664h-8.912V2.24Zm4.448 2.256c2.192 0 3.712 1.12 3.712 2.768 0 1.664-1.52 2.784-3.712 2.784-2.16 0-3.68-1.12-3.68-2.784 0-1.648 1.52-2.768 3.68-2.768Zm0 1.6c-.96 0-1.648.416-1.648 1.168 0 .768.688 1.184 1.648 1.184.992 0 1.68-.416 1.68-1.184 0-.752-.688-1.168-1.68-1.168ZM18.874.672h2.128V3.2h-2.128V.672Zm15.263 7.536h2.128v3.248h-2.128V8.208Zm6.496-7.6h2.128v11.216h-2.128V.608Zm-8.544 12.864H43.08v1.696H32.089v-1.696Zm0-2.704h2.128v3.152h-2.128v-3.152Zm-1.6-1.92-.256-1.696c2.704 0 6.32-.032 9.424-.432l.128 1.52c-3.152.528-6.624.608-9.296.608Zm7.344.368h3.264v1.456h-3.264V9.216ZM35 1.12c2.16 0 3.68 1.072 3.68 2.64 0 1.584-1.52 2.64-3.68 2.64-2.176 0-3.696-1.056-3.696-2.64 0-1.568 1.52-2.64 3.696-2.64Zm0 1.552c-.992 0-1.68.368-1.68 1.088 0 .72.688 1.088 1.68 1.088.976 0 1.664-.368 1.664-1.088 0-.72-.688-1.088-1.664-1.088Zm15.142 3.664h1.232c2.976 0 4.624-.032 6.608-.336l.176 1.648c-2 .304-3.76.336-6.784.336h-1.232V6.336Zm0-5.136h6.96v1.648H52.27v4.496h-2.128V1.2Zm1.472 2.56h5.168v1.584h-5.168V3.76Zm7.52-3.152h2.128v7.6h-2.128v-7.6Zm1.264 2.896h2.816v1.712h-2.816V3.504ZM51.47 8.832h9.792v3.952h-7.648v1.776h-2.112v-3.28h7.664v-.832H51.47V8.832Zm.032 4.88h10.192v1.616H51.503v-1.616Zm17.055-5.2h2.127v2.896h-2.127V8.512Zm-2.705-1.12h7.697v1.68h-7.697v-1.68Zm0-5.568h7.665v1.68H67.98v4.512h-2.127V1.824Zm1.537 2.8h5.84v1.632h-5.84V4.624ZM75.004.592h2.129v14.864h-2.129V.592Zm-9.92 12.176-.255-1.728c2.591 0 6.24-.032 9.36-.496l.16 1.552c-3.216.64-6.704.656-9.264.672Z"/></svg>