<svg xmlns="http://www.w3.org/2000/svg" width="93" height="16" fill="none">
  <path
    fill="#303030"
    d="m8.438 10.347-8 3.522v-2.3l5.477-2.2-.074.12v-.284l.074.119L.437 7.125V4.824l8 3.523v2Zm6.692 1.621h13.408v1.744H15.13v-1.744Zm1.024-10.08h11.28v1.696h-11.28V1.888Zm.064 6.128h11.168v1.712H16.218V8.016Zm1.952-4.56h2.128v4.72H18.17v-4.72Zm5.136 0h2.112v4.72h-2.112v-4.72Zm6.99 8.608h13.409v1.728H30.297v-1.728Zm5.617-2.8h2.128v3.504h-2.128V9.264ZM31.8 1.568h10.4v4.928h-8.256v2.496h-2.112v-4.16h8.256V3.248H31.8v-1.68Zm.032 6.576h10.704v1.712H31.833V8.144ZM55.656.608H57.8v7.584h-2.144V.608Zm-7.888 8.176H57.8v4h-7.904v1.792H47.8v-3.312h7.888v-.848h-7.92V8.784Zm.032 4.896h10.4v1.648H47.8V13.68ZM46.088 1.504h7.984v1.632h-7.984V1.504Zm-.176 6.432-.208-1.68c2.592 0 6.048-.048 8.912-.4l.112 1.52c-2.928.48-6.256.544-8.816.56Zm1.344-5.696h2.032v4.848h-2.032V2.24Zm3.584 0h2.064v4.848H50.84V2.24Zm19.51-1.2h1.872v.688c0 2.848-2.24 5.264-6.128 5.84l-.832-1.712c3.407-.448 5.088-2.384 5.088-4.128V1.04Zm.4 0h1.856v.688c0 1.728 1.696 3.68 5.088 4.128l-.817 1.712c-3.887-.576-6.127-2.992-6.127-5.84V1.04ZM70.364 10h2.113v5.424h-2.112V10Zm-5.584-1.344h13.392v1.728H64.782V8.656Zm23.183-4.464h2.816V5.92h-2.816V4.192Zm2.24-3.584h2.128v8.8h-2.128v-8.8Zm-2.896 9.12c3.136 0 5.072 1.072 5.072 2.864 0 1.808-1.936 2.848-5.072 2.848s-5.072-1.04-5.072-2.848c0-1.792 1.936-2.864 5.072-2.864Zm0 1.616c-1.92 0-2.944.4-2.944 1.248 0 .832 1.024 1.232 2.944 1.232 1.936 0 2.96-.4 2.96-1.232 0-.848-1.024-1.248-2.96-1.248Zm-3.952-9.248h1.728v.928c0 2.832-1.312 5.424-4.144 6.384l-1.088-1.68c2.448-.832 3.504-2.8 3.504-4.704v-.928Zm.448 0h1.712v.928c0 1.744 1.008 3.552 3.344 4.336l-1.04 1.68c-2.752-.912-4.016-3.376-4.016-6.016v-.928Zm-3.376-.592h7.968V3.2h-7.968V1.504Z"
  />
</svg>