<svg width="53" height="55" viewBox="0 0 53 55" fill="none" xmlns="http://www.w3.org/2000/svg">
<g id="art" clip-path="url(#clip0_1296_140)">
<path id="Path 120" fill-rule="evenodd" clip-rule="evenodd" d="M52.4074 28.7967C52.4074 43.2685 40.6755 55.0004 26.2037 55.0004C11.7319 55.0004 0 43.2685 0 28.7967C0 14.3249 11.7319 2.59299 26.2037 2.59299C40.6755 2.59299 52.4074 14.3249 52.4074 28.7967Z" fill="white"/>
<path id="Path 121" fill-rule="evenodd" clip-rule="evenodd" d="M13.4957 49.118L12.376 51.0571C13.644 51.8466 14.9846 52.5304 16.3851 53.097L18.6825 49.118L13.4957 49.118Z" fill="#A5683F"/>
<path id="Path 122" fill-rule="evenodd" clip-rule="evenodd" d="M13.4957 49.118L12.376 51.057C12.7791 51.3079 13.1907 51.547 13.608 51.7763L15.143 49.118L13.4957 49.118Z" fill="#8E5935"/>
<path id="Path 123" fill-rule="evenodd" clip-rule="evenodd" d="M33.725 49.118L36.0224 53.0969C37.4233 52.5304 38.7635 51.8465 40.0315 51.0573L38.9118 49.118H33.725Z" fill="#A5683F"/>
<path id="Path 124" fill-rule="evenodd" clip-rule="evenodd" d="M33.725 49.118L36.0224 53.097C36.4761 52.9136 36.9228 52.7164 37.3635 52.5089L35.4058 49.118H33.725Z" fill="#8E5935"/>
<path id="Path 125" fill-rule="evenodd" clip-rule="evenodd" d="M23.958 49.118V54.9036C24.7134 54.9679 25.4775 55.0017 26.25 55.0004C26.9911 54.9992 27.7248 54.9654 28.4501 54.904V49.118L23.958 49.118Z" fill="#A5683F"/>
<path id="Path 126" fill-rule="evenodd" clip-rule="evenodd" d="M23.958 49.118V54.9036C24.4886 54.9487 25.0234 54.9779 25.5623 54.9913V49.118H23.958Z" fill="#8E5935"/>
<path id="Path 127" fill-rule="evenodd" clip-rule="evenodd" d="M12.062 47.086V48.6902C12.062 48.9843 12.3027 49.225 12.5968 49.225H39.8107C40.1048 49.225 40.3454 48.9843 40.3454 48.6902V47.086H12.062Z" fill="#EF9614"/>
<path id="Path 128" fill-rule="evenodd" clip-rule="evenodd" d="M17.0057 48.6902V47.086H12.062V48.6902C12.062 48.9843 12.3027 49.225 12.5968 49.225H17.5405C17.2463 49.225 17.0057 48.9843 17.0057 48.6902H17.0057Z" fill="#EF8318"/>
<path id="Path 129" fill-rule="evenodd" clip-rule="evenodd" d="M42.4196 12.444C40.0955 14.7681 37.722 16.9009 35.7362 18.4505L35.6966 18.4819L35.6949 18.532C35.6656 19.5572 35.4572 20.783 34.1357 22.1049C32.6734 23.5672 30.7274 24.3727 28.6568 24.3727C28.4629 24.3727 28.267 24.3652 28.0736 24.3509C28.0105 24.3459 27.9512 24.3188 27.9065 24.2741C27.8618 24.2294 27.8346 24.17 27.83 24.107C27.6608 21.8509 28.4793 19.6412 30.0756 18.0449C31.3975 16.7234 32.6233 16.5149 33.6486 16.4857L33.6987 16.484L33.73 16.4443C35.2792 14.4585 37.4124 12.0847 39.7366 9.76094C41.0551 8.44199 42.3611 7.21327 43.5915 6.12199H31.9791V7.72631C31.9791 7.96235 31.7873 8.15412 31.5513 8.15412H20.8559C20.6199 8.15412 20.4281 7.96235 20.4281 7.72631V6.12242H7.37974C7.08563 6.12242 6.84497 6.36307 6.84497 6.65719V43.4493H45.5623V9.14471C44.5918 10.218 43.5335 11.3298 42.4197 12.444L42.4196 12.444Z" fill="#FFE2B8"/>
<path id="Path 130" fill-rule="evenodd" clip-rule="evenodd" d="M10.0536 43.4489V6.65676C10.0536 6.36263 10.2942 6.12199 10.5883 6.12199H7.37974C7.08563 6.12199 6.84497 6.36263 6.84497 6.65676V43.4489H10.0536Z" fill="#FFC987"/>
<path id="Path 131" fill-rule="evenodd" clip-rule="evenodd" d="M36.1225 26.3889C36.0298 26.2281 35.8581 26.129 35.6722 26.129C35.4862 26.129 35.3145 26.2281 35.2218 26.3889L28.515 38.005L31.6584 43.4493H45.5623V42.7394L36.1225 26.3889Z" fill="#2176FF"/>
<path id="Path 132" fill-rule="evenodd" clip-rule="evenodd" d="M30.1729 40.8765L37.3299 28.4803L36.1226 26.3889C36.0298 26.2281 35.8581 26.129 35.6722 26.129C35.4863 26.129 35.3145 26.2281 35.2218 26.3889L28.515 38.005L30.1729 40.8765Z" fill="#2176FF"/>
<path id="Path 133" fill-rule="evenodd" clip-rule="evenodd" d="M31.7869 43.4498L19.6489 22.4258C19.5558 22.2649 19.3841 22.166 19.1986 22.166C19.0127 22.166 18.841 22.2649 18.7482 22.4258L6.84497 43.0425V43.4498L31.7869 43.4498Z" fill="#2176FF"/>
<path id="Path 134" fill-rule="evenodd" clip-rule="evenodd" d="M10.1606 43.4498V43.0425L20.8563 24.5173L19.6489 22.4263C19.5558 22.2654 19.3841 22.166 19.1986 22.166C19.0127 22.166 18.841 22.2654 18.7482 22.4263L6.84497 43.0425V43.4498H10.1606Z" fill="#2176FF"/>
<path id="Path 135" fill-rule="evenodd" clip-rule="evenodd" d="M48.7705 46.6577C48.7705 46.9516 48.5298 47.1923 48.2357 47.1923H4.17077C3.87664 47.1923 3.63599 46.9516 3.63599 46.6577V43.8768C3.63599 43.5826 3.87664 43.342 4.17077 43.342H48.2357C48.5298 43.342 48.7705 43.5826 48.7705 43.8768V46.6577Z" fill="#994334"/>
<path id="Path 136" fill-rule="evenodd" clip-rule="evenodd" d="M8.44891 46.6577V43.8768C8.44891 43.5826 8.68957 43.342 8.98369 43.342H4.17077C3.87664 43.342 3.63599 43.5826 3.63599 43.8768V46.6577C3.63599 46.9516 3.87664 47.1923 4.17077 47.1923H8.98369C8.68957 47.1923 8.44891 46.9516 8.44891 46.6577Z" fill="#87352A"/>
<path id="Path 137" fill-rule="evenodd" clip-rule="evenodd" d="M28.4501 4.51815V0.774768C28.4501 0.480648 28.2094 0.239998 27.9153 0.239998H24.4927C24.1987 0.239998 23.958 0.480648 23.958 0.774768V4.51815H28.4501Z" fill="#A5683F"/>
<path id="Path 138" fill-rule="evenodd" clip-rule="evenodd" d="M25.5623 4.51815V0.774768C25.5623 0.480648 25.803 0.239998 26.0971 0.239998H24.4927C24.1987 0.239998 23.958 0.480648 23.958 0.774768V4.51815H25.5623Z" fill="#8E5935"/>
<path id="Path 139" fill-rule="evenodd" clip-rule="evenodd" d="M32.0859 7.72656C32.0859 8.02068 31.8453 8.26133 31.5511 8.26133H20.8557C20.5616 8.26133 20.321 8.02068 20.321 7.72656V4.94576C20.321 4.65164 20.5616 4.411 20.8557 4.411H31.5511C31.8453 4.411 32.0859 4.65164 32.0859 4.94576V7.72656Z" fill="#994334"/>
<path id="Path 140" fill-rule="evenodd" clip-rule="evenodd" d="M23.5296 7.72656V4.94576C23.5296 4.65164 23.7703 4.411 24.0644 4.411H20.8557C20.5616 4.411 20.321 4.65164 20.321 4.94576V7.72656C20.321 8.02068 20.5616 8.26133 20.8557 8.26133H24.0644C23.7703 8.26133 23.5296 8.02068 23.5296 7.72656Z" fill="#87352A"/>
<path id="Path 141" fill-rule="evenodd" clip-rule="evenodd" d="M19.8932 15.2131C19.8932 17.635 17.93 19.5982 15.5081 19.5982C13.0862 19.5982 11.123 17.635 11.123 15.2131C11.123 12.7912 13.0862 10.828 15.5081 10.828C17.93 10.828 19.8932 12.7912 19.8932 15.2131Z" fill="#FFAF10"/>
<path id="Path 142" fill-rule="evenodd" clip-rule="evenodd" d="M13.1551 15.2131C13.1551 13.1413 14.5923 11.4062 16.5241 10.9475C16.1979 10.8702 15.8578 10.828 15.5081 10.828C13.0862 10.828 11.123 12.7912 11.123 15.2131C11.123 17.635 13.0862 19.5982 15.5081 19.5982C15.8578 19.5982 16.1979 19.556 16.5241 19.4787C14.5923 19.02 13.1551 17.2849 13.1551 15.2131Z" fill="#EF9614"/>
<path id="Path 143" fill-rule="evenodd" clip-rule="evenodd" d="M50.8752 1.30621C50.0923 0.523688 45.0717 4.27543 39.6609 9.68579C37.1897 12.157 35.0652 14.5467 33.56 16.4886C33.6719 16.4845 33.7835 16.4828 33.8937 16.4828C34.3738 16.4828 34.8622 16.5191 35.3795 16.558C35.4425 16.5626 35.5019 16.5897 35.5466 16.6344C35.5913 16.6791 35.6184 16.7385 35.6234 16.8016C35.6706 17.4328 35.7153 18.0353 35.6907 18.6227C37.633 17.1174 40.0232 14.9921 42.4952 12.5201C47.9059 7.10971 51.6577 2.08872 50.8752 1.30617L50.8752 1.30621Z" fill="#FE3745"/>
<path id="Path 144" fill-rule="evenodd" clip-rule="evenodd" d="M50.8752 1.30621C50.0923 0.523688 45.0717 4.27543 39.6609 9.68579C37.1897 12.157 35.0652 14.5467 33.56 16.4886C33.6719 16.4845 33.7835 16.4828 33.8937 16.4828C34.3061 16.4828 34.7252 16.5099 35.1622 16.5421C36.6696 14.5906 38.8099 12.18 41.3041 9.68579C45.2187 5.77111 48.9287 2.72544 50.978 1.63668C50.9821 1.49129 50.9487 1.37974 50.8752 1.30621Z" fill="#EA2A3D"/>
<path id="Path 145" fill-rule="evenodd" clip-rule="evenodd" d="M35.6218 16.5579C35.6828 16.6189 35.723 16.7012 35.7297 16.7927C35.8741 18.7242 35.9991 20.392 34.2113 22.1801C32.5929 23.7986 30.3527 24.6283 28.0653 24.457C27.9737 24.4504 27.8915 24.4103 27.8308 24.3497C27.7699 24.2887 27.7299 24.2064 27.7231 24.1149C27.5518 21.8275 28.3815 19.5873 30.0001 17.9692C31.7882 16.181 33.456 16.306 35.3874 16.4505C35.4789 16.4572 35.5613 16.4973 35.6218 16.5579Z" fill="#A5683F"/>
<path id="Path 146" fill-rule="evenodd" clip-rule="evenodd" d="M30.76 18.6858C30.8244 18.6908 30.8821 18.7188 30.9251 18.7618C30.928 18.7643 30.93 18.7676 30.9326 18.7706C31.1461 18.4903 31.3767 18.2212 31.629 17.9688C32.6998 16.898 33.728 16.5137 34.795 16.4084C33.1092 16.3006 31.6032 16.3662 30.0005 17.9688C29.772 18.1974 29.5613 18.4393 29.365 18.6908C29.83 18.654 30.298 18.6511 30.76 18.6858Z" fill="#8E5935"/>
<path id="Path 147" fill-rule="evenodd" clip-rule="evenodd" d="M27.7231 24.1151C27.7298 24.2066 27.7699 24.2885 27.8309 24.3499C27.8915 24.4105 27.9738 24.4506 28.0652 24.4573C30.0297 24.6043 31.9587 24.0127 33.4894 22.8179C33.5262 22.352 33.5287 21.8837 33.4944 21.4208C33.4894 21.3565 33.4614 21.2988 33.4184 21.2558C33.3754 21.2127 33.3177 21.1848 33.2529 21.1798C32.9283 21.1555 32.5979 21.1488 32.267 21.1601C32.2782 20.8296 32.2715 20.4992 32.2474 20.1741C32.2427 20.1098 32.2143 20.0517 32.1717 20.0091C32.1287 19.9661 32.0705 19.9381 32.0063 19.9331C31.6813 19.9088 31.3508 19.9021 31.0203 19.9134C31.0316 19.5829 31.0249 19.2525 31.0006 18.9275C30.9957 18.8631 30.9676 18.805 30.9246 18.762C30.8815 18.719 30.8239 18.691 30.7591 18.6864C30.2967 18.6517 29.8284 18.6546 29.3625 18.6914C28.1676 20.2217 27.5761 22.1507 27.7231 24.1151H27.7231Z" fill="#293D7C"/>
<path id="Path 148" fill-rule="evenodd" clip-rule="evenodd" d="M29.5 24.3499C29.4389 24.2889 29.3992 24.207 29.3921 24.1151C29.2485 22.1954 29.8121 20.3099 30.9534 18.7963C30.9451 18.7841 30.9355 18.7729 30.9246 18.7624C30.8816 18.7194 30.8239 18.6914 30.7596 18.6864C30.2967 18.6517 29.8284 18.6546 29.3625 18.6914C28.1676 20.2222 27.576 22.1511 27.7231 24.1151C27.7298 24.207 27.7699 24.2889 27.8309 24.3499C27.8915 24.4109 27.9738 24.4506 28.0653 24.4577C28.5821 24.4961 29.096 24.4824 29.6011 24.4214C29.5635 24.4034 29.5292 24.3791 29.5 24.3499L29.5 24.3499Z" fill="#1A2B63"/>
</g>
<defs>
<clipPath id="clip0_1296_140">
<rect width="52.4074" height="54.7605" fill="white" transform="translate(0 0.239998)"/>
</clipPath>
</defs>
</svg>
