<svg width="53" height="53" viewBox="0 0 53 53" fill="none" xmlns="http://www.w3.org/2000/svg">
<g clip-path="url(#clip0_1_2937)">
<path d="M51.7603 26.3802C51.7603 40.9495 40.1734 52.7603 25.8802 52.7603C21.606 52.7603 17.5738 51.7042 14.0212 49.834C10.7163 48.0942 5.06432 42.0632 4.83575 41.7383C1.7919 37.4125 0 32.1096 0 26.3802C0 11.8108 11.5869 0 25.8802 0C40.1734 0 51.7603 11.8108 51.7603 26.3802V26.3802Z" fill="white"/>
<g clip-path="url(#clip1_1_2937)">
<ellipse cx="22.2306" cy="26.0489" rx="19.3762" ry="18.3762" fill="#E28086"/>
<path d="M21.2394 7.69871C27.3138 10.8006 31.4425 16.8873 31.4425 23.8885C31.4425 34.037 22.7675 42.264 12.0663 42.264C11.7278 42.264 11.3913 42.2558 11.057 42.2395C13.7876 43.6339 16.9114 44.4252 20.23 44.4252C30.9312 44.4252 39.6062 36.1982 39.6062 26.0497C39.6063 16.2222 31.4714 8.19666 21.2393 7.69872L21.2394 7.69871Z" fill="#DD636E"/>
<path d="M41.5882 26.8521C41.6002 26.5857 41.6064 26.318 41.6064 26.0489C41.6064 25.7797 41.6002 25.5119 41.5882 25.2457H23.0771V19.3614C28.1901 19.1633 32.9593 17.1732 36.5859 13.707C36.2064 13.3102 35.8087 12.9292 35.3944 12.5652C32.0865 15.7315 27.7403 17.5562 23.0769 17.7535V7.68997C22.7961 7.67854 22.5139 7.67271 22.2301 7.67271C21.9463 7.67271 21.6639 7.67854 21.3832 7.68997V17.7534C16.7198 17.5561 12.3735 15.7315 9.06575 12.5651C8.65141 12.9291 8.25373 13.3101 7.87424 13.7069C11.5012 17.1732 16.2699 19.1632 21.3832 19.3613V25.2456H2.87219C2.86013 25.512 2.854 25.7796 2.854 26.0488C2.854 26.3179 2.86014 26.5857 2.87219 26.852H21.3833V32.7363C16.27 32.9343 11.5013 34.9243 7.87435 38.3907C8.25394 38.7875 8.65152 39.1685 9.06586 39.5325C12.3736 36.3661 16.7199 34.5415 21.3833 34.3442V44.4078C21.6641 44.4193 21.9464 44.4251 22.2302 44.4251C22.514 44.4251 22.7963 44.4193 23.0771 44.4078V34.3444C27.7403 34.5417 32.0865 36.3664 35.3945 39.5327C35.8088 39.1687 36.2064 38.7877 36.586 38.3909C32.9593 34.9247 28.1903 32.9346 23.0772 32.7365V26.8522H41.5881L41.5882 26.8521Z" fill="#DD636E"/>
<g clip-path="url(#clip2_1_2937)">
<path d="M19.3831 44.4076C19.6639 44.4196 19.9463 44.4258 20.23 44.4258C20.5137 44.4258 20.7962 44.4196 21.0769 44.4076V39.9287C20.5273 40.2179 19.9622 40.4815 19.383 40.7178V44.4076H19.3831Z" fill="#DA4A54"/>
<path d="M28.0939 34.6627C27.7647 35.1461 27.4144 35.6137 27.044 36.0644C29.3988 36.9943 31.5571 38.4124 33.3946 40.2672C33.809 39.8833 34.2066 39.4816 34.5862 39.0632C32.695 37.1574 30.4931 35.6749 28.0939 34.6627Z" fill="#DA4A54"/>
<path d="M34.5862 14.0357C34.2067 13.6173 33.809 13.2156 33.3946 12.8317C32.1677 14.0701 30.7979 15.1138 29.322 15.9475C29.5797 16.4504 29.816 16.9662 30.0298 17.4934C31.6829 16.5749 33.2161 15.4164 34.5862 14.0357V14.0357Z" fill="#DA4A54"/>
<path d="M39.6067 26.0496C39.6067 25.7658 39.6006 25.4834 39.5885 25.2027H31.3907C31.349 25.7746 31.2823 26.3395 31.192 26.8966H39.5885C39.6006 26.6158 39.6067 26.3334 39.6067 26.0496Z" fill="#DA4A54"/>
</g>
<path d="M53.0188 27.1625C52.7732 25.0483 52.1012 23.0641 51.0909 21.2985L40.7747 13.8189C39.7696 13.6135 38.729 13.5057 37.6634 13.5057C36.5976 13.5057 35.5571 13.6136 34.5521 13.8189L24.2359 21.2985C23.2256 23.0641 22.5534 25.0483 22.308 27.1625L26.2664 39.4105C27.6388 40.907 29.302 42.1325 31.1665 42.9973H44.1605C46.025 42.1325 47.6883 40.907 49.0606 39.4105L53.0188 27.1625Z" fill="#F9F6F6"/>
<path d="M36.816 31.6587H38.5099V42.2409H36.816V31.6587Z" fill="#EFE7E4"/>
<path d="M28.591 41.4847C29.3946 42.0681 30.2565 42.576 31.1663 42.998L32.8446 42.164C31.3667 42.1356 29.9396 41.8999 28.591 41.4847Z" fill="#EFE7E4"/>
<path d="M53.0192 27.1629C52.7737 25.0487 52.1016 23.0645 51.0912 21.2989L49.1505 19.8917L47.2293 20.32C48.1136 22.2669 48.6063 24.4294 48.6063 26.7071C48.6063 32.9303 44.9291 38.2946 39.629 40.746L41.2881 42.9976H44.1607C46.0253 42.1329 47.6886 40.9074 49.0608 39.4108L53.0192 27.1629Z" fill="#EFE7E4"/>
<path d="M5.66358 33.0977C8.79149 33.0977 11.3272 35.6334 11.3272 38.7613C11.3272 41.8892 8.79149 44.4249 5.66358 44.4249C2.53567 44.4249 0 41.8892 0 38.7613C0 35.6334 2.53567 33.0977 5.66358 33.0977Z" fill="#2176FF"/>
<path d="M5.67299 33.0977C6.38713 34.0455 6.81057 35.2247 6.81057 36.5028C6.81057 39.6307 4.27496 42.1664 1.14699 42.1664C1.14392 42.1664 1.14096 42.1664 1.138 42.1664C2.17156 43.538 3.81414 44.4249 5.664 44.4249C8.79186 44.4249 11.3276 41.8893 11.3276 38.7613C11.3275 35.6363 8.79668 33.1025 5.67299 33.0977Z" fill="#2176FF"/>
<path d="M34.663 29.2897L25.557 34.7872L25.7954 36.6219L34.135 31.5871L34.663 29.2897Z" fill="#EFE7E4"/>
<path d="M35.562 26.1912L29.933 20.9269L31.0791 19.6797L36.9687 25.1878L35.562 26.1912Z" fill="#EFE7E4"/>
<path d="M41.663 29.2897L50.7691 34.7872L50.5308 36.6219L42.1912 31.5871L41.663 29.2897Z" fill="#EFE7E4"/>
<path d="M48.6018 34.4677L49.1499 33.8093L47.9727 33.0987C47.8083 33.6547 47.6134 34.1976 47.39 34.7255L48.6698 35.4982L48.6018 34.4677Z" fill="#DAD0CB"/>
<path d="M40.7638 26.1912L46.3929 20.9269L45.2466 19.6797L39.357 25.1878L40.7638 26.1912Z" fill="#EFE7E4"/>
<path d="M10.4283 41.8238C9.2807 40.3722 7.5182 39.5127 5.66319 39.5127C3.80829 39.5127 2.04568 40.3721 0.89801 41.8237C1.21085 42.3096 1.59593 42.7444 2.03811 43.1131C2.06595 43.0843 2.09226 43.0533 2.11638 43.0199C2.93893 41.8844 4.26483 41.2066 5.66308 41.2066C7.06133 41.2066 8.38723 41.8845 9.20967 43.0199C9.2339 43.0534 9.26009 43.0844 9.28793 43.1132C9.73034 42.7445 10.1154 42.3096 10.4283 41.8238V41.8238Z" fill="#E3DFFD"/>
<path d="M0.89801 35.6991C2.04568 37.1508 3.80817 38.0102 5.66319 38.0102C7.51809 38.0102 9.28059 37.1508 10.4283 35.6991C10.1154 35.2133 9.73023 34.7785 9.28805 34.4097C9.26021 34.4386 9.23401 34.4696 9.20978 34.503C8.38734 35.6385 7.06144 36.3165 5.66319 36.3165C4.26494 36.3165 2.93904 35.6385 2.11649 34.503C2.09227 34.4696 2.06607 34.4386 2.03822 34.4098C1.59603 34.7785 1.21085 35.2133 0.89801 35.6991Z" fill="#E3DFFD"/>
<path d="M9.28835 36.4097C9.26051 36.4386 9.23431 36.4696 9.21009 36.503C8.61554 37.3238 7.75791 37.9056 6.80009 38.165C6.80667 38.2768 6.81007 38.3895 6.81007 38.5029C6.81007 38.9967 6.74681 39.4758 6.62799 39.9325C8.11765 39.6907 9.48215 38.8964 10.4285 37.6992C10.1157 37.2133 9.73053 36.7785 9.28834 36.4097L9.28835 36.4097Z" fill="#E3DFFD"/>
<path d="M5.94143 39.5187C4.93867 41.1095 3.16631 42.1662 1.14699 42.1662C1.14403 42.1662 1.14096 42.1662 1.138 42.1662C1.40107 42.5154 1.70361 42.8331 2.03892 43.1128C2.06676 43.084 2.09307 43.0529 2.11719 43.0196C2.93974 41.8841 4.26564 41.2063 5.66389 41.2063C7.06214 41.2063 8.38804 41.8841 9.21048 43.0196C9.2347 43.0531 9.2609 43.0841 9.28874 43.1129C9.73093 42.7441 10.1161 42.3093 10.429 41.8235C9.33883 40.4442 7.69362 39.5997 5.94143 39.5187V39.5187Z" fill="#E3DFFD"/>
<path d="M42.5433 24.0617H34.7836C34.6299 24.0617 34.4935 24.1603 34.4453 24.3062L32.008 31.6836C31.9592 31.8311 32.0117 31.9932 32.1378 32.0841L38.455 36.6445C38.5795 36.7344 38.7476 36.7344 38.872 36.6445L45.1892 32.0841C45.3151 31.9931 45.3677 31.831 45.319 31.6836L42.8817 24.3062C42.8334 24.1603 42.697 24.0617 42.5433 24.0617H42.5433Z" fill="#665E66"/>
<path d="M35.5522 15.8187C31.1364 16.721 27.4059 19.5058 25.236 23.2983L31.7651 21.6434C31.8537 21.621 31.9302 21.5654 31.979 21.4881L35.5522 15.8187Z" fill="#665E66"/>
<path d="M53.0192 27.1627L48.6935 32.3587C48.635 32.4289 48.6058 32.5189 48.6118 32.61L49.0608 39.4105C51.5836 36.6595 53.1232 32.9922 53.1232 28.9654C53.1232 28.3556 53.0879 27.7541 53.0192 27.1627Z" fill="#544F57"/>
<path d="M23.308 27.1627C23.2393 27.7541 23.204 28.3556 23.204 28.9653C23.204 32.9922 24.7436 36.6595 27.2663 39.4106L27.7153 32.6101C27.7213 32.5189 27.6921 32.4289 27.6336 32.3588L23.308 27.1627Z" fill="#665E66"/>
<path d="M51.0912 23.2983C48.9211 19.5058 45.1907 16.7209 40.775 15.8187L44.3483 21.4881C44.397 21.5654 44.4736 21.6211 44.5622 21.6434L51.0912 23.2983Z" fill="#665E66"/>
<path d="M32.166 42.9975C34.1413 43.9136 36.3425 44.425 38.663 44.425C40.9836 44.425 43.1847 43.9136 45.16 42.9975L38.8215 39.848C38.7216 39.7983 38.6043 39.7983 38.5045 39.848L32.166 42.9975Z" fill="#665E66"/>
<path d="M47.2293 22.3195L51.0912 23.2983C49.1622 19.9269 45.9998 17.3518 42.219 16.1877C44.3773 17.7544 46.1146 19.8656 47.2293 22.3195Z" fill="#544F57"/>
<path d="M34.1461 42.1664C34.0453 42.1664 33.9447 42.1655 33.8443 42.1636L32.166 42.9975C34.1413 43.9136 36.3425 44.4249 38.663 44.4249C40.9836 44.4249 43.1847 43.9136 45.16 42.9975L40.6284 40.7457C38.657 41.6576 36.4609 42.1664 34.1461 42.1664Z" fill="#544F57"/>
</g>
</g>
<defs>
<clipPath id="clip0_1_2937">
<rect width="52.52" height="52.52" fill="white"/>
</clipPath>
<clipPath id="clip1_1_2937">
<rect width="52.52" height="37.1676" fill="white" transform="translate(0 7.67271)"/>
</clipPath>
<clipPath id="clip2_1_2937">
<rect width="20.2237" height="31.5941" fill="white" transform="translate(19.383 12.8317)"/>
</clipPath>
</defs>
</svg>
