<svg width="53" height="53" viewBox="0 0 53 53" fill="none" xmlns="http://www.w3.org/2000/svg">
<g id="processor" clip-path="url(#clip0_1_3023)">
<path id="Path 223" d="M53.0001 26.4493C53.023 38.6843 44.7541 48.9918 33.4993 52.0659C29.0924 46.2068 22.1875 42.7603 14.8561 42.7603H5.57505V42.7622C2.08098 38.2729 0 32.6295 0 26.5C0 11.8823 11.8354 0.0290429 26.4462 5.2867e-05C41.0352 -0.0289271 52.9728 11.8603 53.0001 26.4493Z" fill="white"/>
<path id="Path 224" d="M48.5279 26.0319C48.5279 37.9635 38.8555 47.6359 26.924 47.6359C14.9924 47.6359 5.32001 37.9635 5.32001 26.0319C5.32001 14.1004 14.9924 4.42799 26.924 4.42799C38.8555 4.42799 48.5279 14.1004 48.5279 26.0319Z" fill="white"/>
<path id="Path 225" d="M43.6589 12.4217V37.2655C43.6589 37.6942 43.3114 38.0419 42.8825 38.0419C42.4536 38.0419 42.1061 37.6942 42.1061 37.2655V12.4217C42.1061 11.7082 41.5257 11.1277 40.8122 11.1277H15.9684C15.5396 11.1277 15.192 10.7801 15.192 10.3514C15.192 9.92261 15.5396 9.575 15.9684 9.575H40.8122C42.3818 9.575 43.6589 10.852 43.6589 12.4217L43.6589 12.4217Z" fill="#C8E2FD"/>
<path id="Path 226" d="M13.7528 7.24601C12.6093 7.24601 11.6824 8.17289 11.6824 9.31633V44.7865C11.6824 46.3493 9.8291 47.1581 8.67324 46.1064C7.54771 45.0823 6.51069 43.9626 5.57501 42.7602V9.31632C5.57501 8.17288 6.50189 7.246 7.64533 7.246L13.7528 7.24601Z" fill="#2176FF"/>
<path id="Path 227" d="M32.5243 9.31631V51.7578C32.5243 51.862 32.5141 51.9637 32.4993 52.0639C30.2694 52.673 27.9231 53 25.5001 53C18.588 53 12.295 50.3528 7.57703 46.018V16.1346V9.31632C7.57703 8.17288 8.50391 7.246 9.64735 7.246H30.454C31.5974 7.246 32.5243 8.17288 32.5243 9.31632L32.5243 9.31631Z" fill="#2176FF"/>
<path id="Path 228" fill-rule="evenodd" clip-rule="evenodd" d="M31.169 37.9535C31.169 38.52 30.7098 38.9792 30.1432 38.9792H7.785C7.21846 38.9792 6.75922 38.52 6.75922 37.9535C6.75922 37.3869 7.21846 36.9277 7.785 36.9277H30.1432C30.7098 36.9277 31.169 37.3869 31.169 37.9535ZM30.1432 26.6699H7.78501C7.21847 26.6699 6.75923 27.1291 6.75923 27.6956C6.75923 28.2622 7.21847 28.7214 7.78501 28.7214H30.1432C30.7098 28.7214 31.169 28.2622 31.169 27.6956C31.169 27.1291 30.7098 26.6699 30.1432 26.6699ZM30.1432 47.1855H10.3954C11.3907 47.9412 12.4415 48.6274 13.5407 49.2371H30.1432C30.7098 49.2371 31.169 48.7778 31.169 48.2113C31.169 47.6448 30.7098 47.1855 30.1432 47.1855V47.1855ZM7.785 18.4636H30.1432C30.7098 18.4636 31.169 18.0043 31.169 17.4378C31.169 16.8713 30.7098 16.412 30.1432 16.412H7.785C7.21846 16.412 6.75922 16.8713 6.75922 17.4378C6.75922 18.0043 7.21846 18.4636 7.785 18.4636Z" fill="#2176FF"/>
<path id="Path 229" fill-rule="evenodd" clip-rule="evenodd" d="M35.9576 19.4641C35.6572 19.7645 35.17 19.7645 34.8696 19.4641C34.7195 19.3139 34.6443 19.117 34.6443 18.9201C34.6443 18.7233 34.7194 18.5263 34.8696 18.3761C35.1122 18.1337 35.2457 17.8116 35.2457 17.4695C35.2457 17.1273 35.1122 16.8053 34.8696 16.5628C34.5692 16.2623 34.5692 15.7752 34.8696 15.4748C35.1701 15.1744 35.6572 15.1744 35.9576 15.4748C36.4907 16.0079 36.7844 16.7163 36.7844 17.4695C36.7844 18.2226 36.4908 18.931 35.9576 19.4641V19.4641ZM38.522 21.0028C40.4703 19.0545 40.4703 15.8844 38.522 13.936C38.2216 13.6356 37.7344 13.6356 37.4341 13.936C37.1337 14.2365 37.1337 14.7236 37.4341 15.024C38.7825 16.3724 38.7825 18.5663 37.4341 19.9147C37.2839 20.0649 37.2087 20.2618 37.2087 20.4587C37.2087 20.6555 37.2839 20.8525 37.4341 21.0027C37.7346 21.3033 38.2217 21.3033 38.522 21.0028Z" fill="#A7D0FC"/>
<path id="Path 230" d="M43.3587 33.1121V34.9754H48.2092C48.7809 34.9754 49.2443 35.4388 49.2443 36.0106V37.2528C49.2443 37.8245 48.7809 38.2879 48.2092 38.2879H43.3587V40.1512H48.2092C48.7809 40.1512 49.2443 40.6146 49.2443 41.1864V42.4286C49.2443 43.0003 48.7809 43.4637 48.2092 43.4637H43.3587V48.3142C43.3587 48.8859 42.8953 49.3493 42.3236 49.3493H41.0814C40.5096 49.3493 40.0462 48.8859 40.0462 48.3142V43.4637H38.1829V48.3142C38.1829 48.8859 37.7195 49.3493 37.1478 49.3493H35.9056C35.3339 49.3493 34.8704 48.8859 34.8704 48.3142V43.4637H33.0071V48.3142C33.0071 48.8859 32.5437 49.3493 31.972 49.3493H30.7298C30.1581 49.3493 29.6946 48.8859 29.6946 48.3142V43.4637H24.8442C24.2725 43.4637 23.809 43.0003 23.809 42.4286V41.1864C23.809 40.6146 24.2725 40.1512 24.8442 40.1512H29.6946V38.2879H24.8442C24.2725 38.2879 23.809 37.8245 23.809 37.2528V36.0106C23.809 35.4388 24.2725 34.9754 24.8442 34.9754H29.6946V33.1121H24.8442C24.2725 33.1121 23.809 32.6487 23.809 32.0769V30.8348C23.809 30.2631 24.2725 29.7996 24.8442 29.7996H29.6946V24.9492C29.6946 24.3775 30.1581 23.914 30.7298 23.914H31.972C32.5437 23.914 33.0071 24.3775 33.0071 24.9492V29.7996H34.8704V24.9492C34.8704 24.3775 35.3339 23.914 35.9056 23.914H37.1478C37.7195 23.914 38.1829 24.3775 38.1829 24.9492V29.7996H40.0462V24.9492C40.0462 24.3775 40.5096 23.914 41.0814 23.914H42.3236C42.8953 23.914 43.3587 24.3775 43.3587 24.9492V29.7996H48.2092C48.7809 29.7996 49.2443 30.2631 49.2443 30.8348V32.0769C49.2443 32.6487 48.7809 33.1121 48.2092 33.1121H43.3587Z" fill="#E1B91E"/>
<path id="Path 231" d="M47.3953 27.8327V45.4304C47.3953 46.288 46.7001 46.9831 45.8425 46.9831H27.2097C26.3522 46.9831 25.657 46.288 25.657 45.4304V27.8327C25.657 26.9752 26.3522 26.28 27.2097 26.28H45.8425C46.7001 26.28 47.3953 26.9752 47.3953 27.8327Z" fill="#E9CC5A"/>
<path id="Path 232" d="M45.8427 46.9831H31.0547C30.1972 46.9831 29.502 46.288 29.502 45.4304V27.8327C29.502 26.9752 30.1972 26.28 31.0547 26.28H45.8427C46.7002 26.28 47.3954 26.9752 47.3954 27.8327V45.4304C47.3954 46.2881 46.7002 46.9831 45.8427 46.9831Z" fill="#FFF04A"/>
<path id="Path 233" fill-rule="evenodd" clip-rule="evenodd" d="M42.9653 31.3911V41.2092C42.9653 42.059 42.2764 42.7479 41.4266 42.7479H30.9637C30.1139 42.7479 29.425 42.059 29.425 41.2092V31.3911C29.425 30.5413 30.1139 29.8524 30.9637 29.8524H41.4266C42.2764 29.8524 42.9653 30.5413 42.9653 31.3911ZM45.5506 17.543C45.5506 18.6761 44.6321 19.5946 43.4991 19.5946C42.366 19.5946 41.4476 18.6761 41.4476 17.543C41.4476 16.4099 42.366 15.4914 43.4991 15.4914C44.6321 15.4914 45.5506 16.41 45.5506 17.543Z" fill="#7FA32F"/>
<path id="Path 234" d="M40.8052 43.0324H33.0657C32.2082 43.0324 31.513 42.3372 31.513 41.4797V31.5717C31.513 30.7142 32.2082 30.019 33.0657 30.019H40.8052C41.6627 30.019 42.3579 30.7142 42.3579 31.5717V41.4797C42.3579 42.3373 41.6627 43.0324 40.8052 43.0324Z" fill="#9BCF1B"/>
<path id="Path 235" fill-rule="evenodd" clip-rule="evenodd" d="M45.5106 17.9494C45.3218 18.8875 44.4931 19.5938 43.4995 19.5938C42.3664 19.5938 41.4479 18.6753 41.4479 17.5423C41.4479 16.6371 42.034 15.8689 42.8475 15.5965C42.821 15.7281 42.8071 15.8642 42.8071 16.0036C42.8071 17.1367 43.7255 18.0552 44.8586 18.0552C45.0865 18.0552 45.3058 18.018 45.5106 17.9494ZM41.4269 29.0823H30.964C29.6914 29.0823 28.656 30.1176 28.656 31.3903V41.2085C28.656 42.4812 29.6914 43.5165 30.964 43.5165H41.4269C42.6996 43.5165 43.7349 42.4812 43.7349 41.2085V31.3903C43.7349 30.1177 42.6996 29.0823 41.4269 29.0823ZM41.4269 41.978H38.4669V35.9209C38.4669 35.496 38.1224 35.1516 37.6975 35.1516C37.2727 35.1516 36.9282 35.496 36.9282 35.9209V41.978H30.964C30.5397 41.978 30.1947 41.6329 30.1947 41.2086V40.0864H31.6967C32.1216 40.0864 32.466 39.7419 32.466 39.3171C32.466 38.8922 32.1216 38.5477 31.6967 38.5477H30.1947V37.0945H31.6967C32.1216 37.0945 32.466 36.7501 32.466 36.3252C32.466 35.9003 32.1216 35.5558 31.6967 35.5558H30.1947V34.0513H31.6967C32.1216 34.0513 32.466 33.7069 32.466 33.282C32.466 32.8571 32.1216 32.5126 31.6967 32.5126H30.1947V31.3904C30.1947 30.9662 30.5397 30.6211 30.964 30.6211H33.7141V36.3655C33.7141 36.7904 34.0586 37.1348 34.4835 37.1348C34.9083 37.1348 35.2528 36.7904 35.2528 36.3655V30.6211H41.4269C41.8512 30.6211 42.1963 30.9662 42.1963 31.3904V32.5126H37.6975C37.2727 32.5126 36.9282 32.8571 36.9282 33.282C36.9282 33.7069 37.2727 34.0513 37.6975 34.0513H42.1963V35.5558H40.7236C40.2987 35.5558 39.9543 35.9003 39.9543 36.3252C39.9543 36.7501 40.2987 37.0945 40.7236 37.0945H42.1963V38.5477H40.7236C40.2987 38.5477 39.9543 38.8922 39.9543 39.3171C39.9543 39.742 40.2987 40.0864 40.7236 40.0864H42.1963V41.2086C42.1963 41.6328 41.8512 41.978 41.4269 41.978V41.978ZM35.2528 39.317C35.2528 39.7419 34.9083 40.0863 34.4835 40.0863C34.0586 40.0863 33.7141 39.7419 33.7141 39.317C33.7141 38.8921 34.0586 38.5476 34.4835 38.5476C34.9083 38.5476 35.2528 38.8921 35.2528 39.317Z" fill="#607C24"/>
<path id="Path 236" fill-rule="evenodd" clip-rule="evenodd" d="M12.6254 11.6777C12.6254 12.3315 12.0955 12.8613 11.4419 12.8613C10.7883 12.8613 10.2582 12.3315 10.2582 11.6777C10.2582 11.024 10.7882 10.4941 11.4418 10.4941C12.0954 10.4941 12.6254 11.0241 12.6254 11.6777ZM10.2582 32.9825C10.2582 33.6362 10.7882 34.166 11.4418 34.166C12.0955 34.166 12.6253 33.6361 12.6253 32.9825C12.6253 32.3288 12.0954 31.7989 11.4418 31.7989C10.7882 31.7989 10.2582 32.3288 10.2582 32.9825Z" fill="#958FCA"/>
<path id="Path 237" fill-rule="evenodd" clip-rule="evenodd" d="M16.5703 11.6777C16.5703 12.3315 16.0404 12.8613 15.3867 12.8613C14.7331 12.8613 14.2032 12.3314 14.2032 11.6777C14.2032 11.0241 14.7331 10.4941 15.3867 10.4941C16.0404 10.4941 16.5703 11.0241 16.5703 11.6777ZM19.3321 23.5926C19.9857 23.5926 20.5157 23.0627 20.5157 22.409C20.5157 21.7553 19.9857 21.2254 19.3321 21.2254C18.6785 21.2254 18.1486 21.7554 18.1486 22.409C18.1486 23.0626 18.6784 23.5926 19.3321 23.5926ZM15.3867 31.7989C14.733 31.7989 14.2032 32.3288 14.2032 32.9826C14.2032 33.6362 14.7331 34.1661 15.3867 34.1661C16.0404 34.1661 16.5703 33.6362 16.5703 32.9826C16.5703 32.3288 16.0405 31.7989 15.3867 31.7989ZM19.3321 41.7411C18.6785 41.7411 18.1486 42.271 18.1486 42.9246C18.1486 43.5783 18.6784 44.1083 19.3321 44.1083C19.9858 44.1083 20.5157 43.5784 20.5157 42.9246C20.5157 42.2709 19.9857 41.7411 19.3321 41.7411Z" fill="#FFF68E"/>
<path id="Path 238" fill-rule="evenodd" clip-rule="evenodd" d="M18.1484 11.6777C18.1484 11.024 18.6784 10.4941 19.332 10.4941C19.9856 10.4941 20.5156 11.0241 20.5156 11.6777C20.5156 12.3314 19.9857 12.8613 19.3321 12.8613C18.6785 12.8613 18.1484 12.3315 18.1484 11.6777ZM15.3867 21.2254C14.733 21.2254 14.2032 21.7554 14.2032 22.409C14.2032 23.0626 14.733 23.5926 15.3867 23.5926C16.0405 23.5926 16.5703 23.0627 16.5703 22.409C16.5703 21.7553 16.0405 21.2254 15.3867 21.2254ZM19.3321 31.7989C18.6785 31.7989 18.1485 32.3288 18.1485 32.9826C18.1485 33.6362 18.6785 34.1661 19.3321 34.1661C19.9857 34.1661 20.5156 33.6362 20.5156 32.9826C20.5156 32.3288 19.9857 31.7989 19.3321 31.7989ZM15.3867 41.7411C14.733 41.7411 14.2032 42.271 14.2032 42.9246C14.2032 43.5783 14.733 44.1083 15.3867 44.1083C16.0405 44.1083 16.5703 43.5784 16.5703 42.9246C16.5703 42.2709 16.0405 41.7411 15.3867 41.7411Z" fill="#B9E746"/>
<path id="Path 239" fill-rule="evenodd" clip-rule="evenodd" d="M10.2582 22.4086C10.2582 21.7549 10.7882 21.225 11.4418 21.225C12.0954 21.225 12.6253 21.755 12.6253 22.4086C12.6253 23.0622 12.0955 23.5922 11.4418 23.5922C10.7881 23.5922 10.2582 23.0623 10.2582 22.4086ZM11.4418 41.7407C10.7882 41.7407 10.2582 42.2706 10.2582 42.9243C10.2582 43.5779 10.7882 44.1079 11.4418 44.1079C12.0954 44.1079 12.6253 43.578 12.6253 42.9243C12.6253 42.2705 12.0955 41.7407 11.4418 41.7407Z" fill="#C1BDE0"/>
</g>
<defs>
<clipPath id="clip0_1_3023">
<rect width="52.52" height="52.52" fill="white"/>
</clipPath>
</defs>
</svg>
