<svg width="65" height="28" viewBox="0 0 65 28" fill="none" xmlns="http://www.w3.org/2000/svg">
<g filter="url(#filter0_ii_129_698)">
<path d="M37 18.9872C35.3431 18.9872 34 17.6441 34 15.9872V2.21378C34 0.991145 34.9911 0 36.2138 0C37.4364 0 38.4275 0.991141 38.4275 2.21377V12.2602C38.4275 13.9171 39.7707 15.2602 41.4275 15.2602H44.1848C45.214 15.2602 46.0483 16.0945 46.0483 17.1237C46.0483 18.1529 45.214 18.9872 44.1848 18.9872H37Z" fill="#3C8AFF"/>
</g>
<g filter="url(#filter1_ii_129_698)">
<path d="M33.4866 17.7532C33.4866 19.8423 33.099 21.6131 32.3238 23.0655C31.5486 24.518 30.4991 25.6213 29.1753 26.3753C27.8575 27.1294 26.3787 27.5064 24.7388 27.5064C23.093 27.5064 21.6112 27.1263 20.2934 26.366C18.9756 25.6058 17.929 24.5026 17.1538 23.0563C16.3846 21.6038 16 19.8361 16 17.7532C16 15.6641 16.3846 13.8933 17.1538 12.4409C17.929 10.9884 18.9756 9.88512 20.2934 9.13107C21.6112 8.37702 23.093 8 24.7388 8C26.3787 8 27.8575 8.37702 29.1753 9.13107C30.4991 9.88512 31.5486 10.9884 32.3238 12.4409C33.099 13.8933 33.4866 15.6641 33.4866 17.7532ZM28.9606 17.7532C28.9606 16.517 28.7907 15.4725 28.4508 14.6196C28.1169 13.7666 27.6339 13.1207 27.0018 12.6819C26.3757 12.2431 25.6213 12.0237 24.7388 12.0237C23.8623 12.0237 23.1079 12.2431 22.4759 12.6819C21.8438 13.1207 21.3578 13.7666 21.0179 14.6196C20.684 15.4725 20.517 16.517 20.517 17.7532C20.517 18.9893 20.684 20.0339 21.0179 20.8868C21.3578 21.7398 21.8438 22.3857 22.4759 22.8245C23.1079 23.2633 23.8623 23.4827 24.7388 23.4827C25.6213 23.4827 26.3757 23.2633 27.0018 22.8245C27.6339 22.3857 28.1169 21.7398 28.4508 20.8868C28.7907 20.0339 28.9606 18.9893 28.9606 17.7532Z" fill="#3C8AFF"/>
</g>
<g filter="url(#filter2_ii_129_698)">
<path d="M65 17.247C65 19.3361 64.6124 21.1068 63.8372 22.5593C63.062 24.0118 62.0125 25.115 60.6887 25.8691C59.3709 26.6231 57.8921 27.0002 56.2522 27.0002C54.6064 27.0002 53.1246 26.6201 51.8068 25.8598C50.489 25.0996 49.4425 23.9963 48.6673 22.55C47.898 21.0976 47.5134 19.3299 47.5134 17.247C47.5134 15.1579 47.898 13.3871 48.6673 11.9346C49.4425 10.4822 50.489 9.3789 51.8068 8.62485C53.1246 7.8708 54.6064 7.49377 56.2522 7.49377C57.8921 7.49377 59.3709 7.8708 60.6887 8.62485C62.0125 9.3789 63.062 10.4822 63.8372 11.9346C64.6124 13.3871 65 15.1579 65 17.247ZM60.4741 17.247C60.4741 16.0108 60.3041 14.9663 59.9642 14.1133C59.6303 13.2604 59.1473 12.6145 58.5152 12.1757C57.8891 11.7368 57.1348 11.5174 56.2522 11.5174C55.3757 11.5174 54.6213 11.7368 53.9893 12.1757C53.3572 12.6145 52.8712 13.2604 52.5313 14.1133C52.1974 14.9663 52.0304 16.0108 52.0304 17.247C52.0304 18.4831 52.1974 19.5277 52.5313 20.3806C52.8712 21.2335 53.3572 21.8794 53.9893 22.3183C54.6213 22.7571 55.3757 22.9765 56.2522 22.9765C57.1348 22.9765 57.8891 22.7571 58.5152 22.3183C59.1473 21.8794 59.6303 21.2335 59.9642 20.3806C60.3041 19.5277 60.4741 18.4831 60.4741 17.247Z" fill="#3C8AFF"/>
</g>
<g filter="url(#filter3_ii_129_698)">
<path d="M1.6826 7.70265C0.9193 6.26186 1.96373 4.52661 3.59421 4.52661C4.42148 4.52661 5.17631 4.9984 5.53879 5.74202L8.78405 12.3996C8.80563 12.4439 8.85057 12.4719 8.89982 12.4719C8.94907 12.4719 8.99401 12.4439 9.0156 12.3996L12.2609 5.74202C12.6233 4.9984 13.3782 4.52661 14.2054 4.52661C15.8359 4.52661 16.8803 6.26187 16.117 7.70265L11.4492 16.5136C11.22 16.9462 11.1002 17.4284 11.1002 17.918V21.3135C11.1002 22.5287 10.115 23.5138 8.89982 23.5138C7.6846 23.5138 6.69946 22.5287 6.69946 21.3135V17.918C6.69946 17.4284 6.57963 16.9462 6.35043 16.5136L1.6826 7.70265Z" fill="#3C8AFF"/>
</g>
<defs>
<filter id="filter0_ii_129_698" x="31" y="-2" width="15.0483" height="22.9872" filterUnits="userSpaceOnUse" color-interpolation-filters="sRGB">
<feFlood flood-opacity="0" result="BackgroundImageFix"/>
<feBlend mode="normal" in="SourceGraphic" in2="BackgroundImageFix" result="shape"/>
<feColorMatrix in="SourceAlpha" type="matrix" values="0 0 0 0 0 0 0 0 0 0 0 0 0 0 0 0 0 0 127 0" result="hardAlpha"/>
<feOffset dx="-3" dy="2"/>
<feGaussianBlur stdDeviation="1.5"/>
<feComposite in2="hardAlpha" operator="arithmetic" k2="-1" k3="1"/>
<feColorMatrix type="matrix" values="0 0 0 0 0.0404166 0 0 0 0 0.0208333 0 0 0 0 1 0 0 0 1 0"/>
<feBlend mode="normal" in2="shape" result="effect1_innerShadow_129_698"/>
<feColorMatrix in="SourceAlpha" type="matrix" values="0 0 0 0 0 0 0 0 0 0 0 0 0 0 0 0 0 0 127 0" result="hardAlpha"/>
<feOffset dx="-3" dy="-2"/>
<feGaussianBlur stdDeviation="2"/>
<feComposite in2="hardAlpha" operator="arithmetic" k2="-1" k3="1"/>
<feColorMatrix type="matrix" values="0 0 0 0 0.804167 0 0 0 0 0.0208333 0 0 0 0 1 0 0 0 0.8 0"/>
<feBlend mode="normal" in2="effect1_innerShadow_129_698" result="effect2_innerShadow_129_698"/>
</filter>
<filter id="filter1_ii_129_698" x="13" y="6" width="20.4866" height="23.5064" filterUnits="userSpaceOnUse" color-interpolation-filters="sRGB">
<feFlood flood-opacity="0" result="BackgroundImageFix"/>
<feBlend mode="normal" in="SourceGraphic" in2="BackgroundImageFix" result="shape"/>
<feColorMatrix in="SourceAlpha" type="matrix" values="0 0 0 0 0 0 0 0 0 0 0 0 0 0 0 0 0 0 127 0" result="hardAlpha"/>
<feOffset dx="-3" dy="2"/>
<feGaussianBlur stdDeviation="1.5"/>
<feComposite in2="hardAlpha" operator="arithmetic" k2="-1" k3="1"/>
<feColorMatrix type="matrix" values="0 0 0 0 0.0404166 0 0 0 0 0.0208333 0 0 0 0 1 0 0 0 1 0"/>
<feBlend mode="normal" in2="shape" result="effect1_innerShadow_129_698"/>
<feColorMatrix in="SourceAlpha" type="matrix" values="0 0 0 0 0 0 0 0 0 0 0 0 0 0 0 0 0 0 127 0" result="hardAlpha"/>
<feOffset dx="-3" dy="-2"/>
<feGaussianBlur stdDeviation="2"/>
<feComposite in2="hardAlpha" operator="arithmetic" k2="-1" k3="1"/>
<feColorMatrix type="matrix" values="0 0 0 0 0.804167 0 0 0 0 0.0208333 0 0 0 0 1 0 0 0 0.8 0"/>
<feBlend mode="normal" in2="effect1_innerShadow_129_698" result="effect2_innerShadow_129_698"/>
</filter>
<filter id="filter2_ii_129_698" x="44.5134" y="5.49377" width="20.4866" height="23.5064" filterUnits="userSpaceOnUse" color-interpolation-filters="sRGB">
<feFlood flood-opacity="0" result="BackgroundImageFix"/>
<feBlend mode="normal" in="SourceGraphic" in2="BackgroundImageFix" result="shape"/>
<feColorMatrix in="SourceAlpha" type="matrix" values="0 0 0 0 0 0 0 0 0 0 0 0 0 0 0 0 0 0 127 0" result="hardAlpha"/>
<feOffset dx="-3" dy="2"/>
<feGaussianBlur stdDeviation="1.5"/>
<feComposite in2="hardAlpha" operator="arithmetic" k2="-1" k3="1"/>
<feColorMatrix type="matrix" values="0 0 0 0 0.0404166 0 0 0 0 0.0208333 0 0 0 0 1 0 0 0 1 0"/>
<feBlend mode="normal" in2="shape" result="effect1_innerShadow_129_698"/>
<feColorMatrix in="SourceAlpha" type="matrix" values="0 0 0 0 0 0 0 0 0 0 0 0 0 0 0 0 0 0 127 0" result="hardAlpha"/>
<feOffset dx="-3" dy="-2"/>
<feGaussianBlur stdDeviation="2"/>
<feComposite in2="hardAlpha" operator="arithmetic" k2="-1" k3="1"/>
<feColorMatrix type="matrix" values="0 0 0 0 0.804167 0 0 0 0 0.0208333 0 0 0 0 1 0 0 0 0.8 0"/>
<feBlend mode="normal" in2="effect1_innerShadow_129_698" result="effect2_innerShadow_129_698"/>
</filter>
<filter id="filter3_ii_129_698" x="-1.57206" y="2.52661" width="17.9438" height="22.9872" filterUnits="userSpaceOnUse" color-interpolation-filters="sRGB">
<feFlood flood-opacity="0" result="BackgroundImageFix"/>
<feBlend mode="normal" in="SourceGraphic" in2="BackgroundImageFix" result="shape"/>
<feColorMatrix in="SourceAlpha" type="matrix" values="0 0 0 0 0 0 0 0 0 0 0 0 0 0 0 0 0 0 127 0" result="hardAlpha"/>
<feOffset dx="-3" dy="2"/>
<feGaussianBlur stdDeviation="1.5"/>
<feComposite in2="hardAlpha" operator="arithmetic" k2="-1" k3="1"/>
<feColorMatrix type="matrix" values="0 0 0 0 0.0404166 0 0 0 0 0.0208333 0 0 0 0 1 0 0 0 1 0"/>
<feBlend mode="normal" in2="shape" result="effect1_innerShadow_129_698"/>
<feColorMatrix in="SourceAlpha" type="matrix" values="0 0 0 0 0 0 0 0 0 0 0 0 0 0 0 0 0 0 127 0" result="hardAlpha"/>
<feOffset dx="-3" dy="-2"/>
<feGaussianBlur stdDeviation="2"/>
<feComposite in2="hardAlpha" operator="arithmetic" k2="-1" k3="1"/>
<feColorMatrix type="matrix" values="0 0 0 0 0.804167 0 0 0 0 0.0208333 0 0 0 0 1 0 0 0 0.8 0"/>
<feBlend mode="normal" in2="effect1_innerShadow_129_698" result="effect2_innerShadow_129_698"/>
</filter>
</defs>
</svg>
