<svg width="324" height="49" viewBox="0 0 324 49" fill="none" xmlns="http://www.w3.org/2000/svg">
<rect x="0.5" y="0.5" width="323" height="48" rx="3.5" fill="white"/>
<rect x="0.5" y="0.5" width="323" height="48" rx="3.5" stroke="#747775"/>
<path fill-rule="evenodd" clip-rule="evenodd" d="M121.64 24.7046C121.64 24.0664 121.583 23.4527 121.476 22.8636H113V26.345H117.844C117.635 27.47 117.001 28.4232 116.048 29.0614V31.3196H118.956C120.658 29.7527 121.64 27.4455 121.64 24.7046Z" fill="#4285F4"/>
<path fill-rule="evenodd" clip-rule="evenodd" d="M113 33.5C115.43 33.5 117.467 32.6941 118.956 31.3195L116.048 29.0614C115.242 29.6014 114.211 29.9204 113 29.9204C110.656 29.9204 108.672 28.3373 107.964 26.21H104.957V28.5418C106.438 31.4832 109.482 33.5 113 33.5Z" fill="#34A853"/>
<path fill-rule="evenodd" clip-rule="evenodd" d="M107.964 26.21C107.784 25.67 107.682 25.0932 107.682 24.5C107.682 23.9068 107.784 23.33 107.964 22.79V20.4582H104.957C104.348 21.6732 104 23.0477 104 24.5C104 25.9523 104.348 27.3268 104.957 28.5418L107.964 26.21Z" fill="#FBBC05"/>
<path fill-rule="evenodd" clip-rule="evenodd" d="M113 19.0795C114.321 19.0795 115.508 19.5336 116.44 20.4255L119.022 17.8441C117.463 16.3918 115.426 15.5 113 15.5C109.482 15.5 106.438 17.5168 104.957 20.4582L107.964 22.79C108.672 20.6627 110.656 19.0795 113 19.0795Z" fill="#EA4335"/>
<path d="M134.736 16.694H144.906V17.9H134.736V16.694ZM132.9 23.678H147.606V24.902H132.9V23.678ZM139.47 24.488H140.964V31.922H139.47V24.488ZM144.204 16.694H145.662V18.098C145.662 19.79 145.662 21.698 145.05 24.452L143.574 24.254C144.204 21.626 144.204 19.736 144.204 18.098V16.694ZM151.331 16.316H161.807V17.522H151.331V16.316ZM149.459 21.68H164.201V22.904H149.459V21.68ZM160.835 16.316H162.293V17.36C162.293 18.53 162.293 20.042 161.861 22.058L160.403 21.896C160.835 19.916 160.835 18.512 160.835 17.36V16.316ZM151.187 24.506H162.347V28.646H152.717V30.914H151.223V27.494H160.871V25.712H151.187V24.506ZM151.223 30.518H162.761V31.724H151.223V30.518ZM170.5 28.664H185.242V29.906H170.5V28.664ZM177.088 25.172H178.582V29.186H177.088V25.172ZM172.282 16.838H183.424V21.77H173.812V25.028H172.336V20.564H181.948V18.044H172.282V16.838ZM172.336 24.398H183.802V25.622H172.336V24.398ZM188.642 17.36H199.118V18.566H188.642V17.36ZM187.058 28.286H201.764V29.528H187.058V28.286ZM198.326 17.36H199.784V18.98C199.784 21.068 199.784 23.39 199.172 26.9L197.678 26.756C198.326 23.426 198.326 20.996 198.326 18.98V17.36ZM215.443 15.65H216.955V27.53H215.443V15.65ZM206.497 30.32H217.441V31.544H206.497V30.32ZM206.497 26.306H207.973V30.734H206.497V26.306ZM208.225 16.766C210.655 16.766 212.455 18.422 212.455 20.78C212.455 23.12 210.655 24.794 208.225 24.794C205.795 24.794 203.977 23.12 203.977 20.78C203.977 18.422 205.795 16.766 208.225 16.766ZM208.225 18.062C206.641 18.062 205.435 19.178 205.435 20.78C205.435 22.364 206.641 23.48 208.225 23.48C209.809 23.48 211.015 22.364 211.015 20.78C211.015 19.178 209.809 18.062 208.225 18.062Z" fill="#1F1F1F"/>
</svg>
