<svg width="30" height="27" viewBox="0 0 30 27" fill="none" xmlns="http://www.w3.org/2000/svg">
<path d="M14.5278 1.33197C11.2579 1.33197 8.12182 2.58102 5.80965 4.80426C3.49747 7.0275 2.19859 10.0429 2.19859 13.187C2.19859 16.3312 3.49747 19.3465 5.80965 21.5698C8.12182 23.793 11.2579 25.042 14.5278 25.042C17.7977 25.042 20.9337 23.793 23.2459 21.5698C25.5581 19.3465 26.857 16.3312 26.857 13.187C26.857 10.0429 25.5581 7.0275 23.2459 4.80426C20.9337 2.58102 17.7977 1.33197 14.5278 1.33197ZM19.1392 9.67999L17.3847 15.423C17.3483 15.5429 17.281 15.6521 17.1892 15.7405C17.0974 15.829 16.984 15.8938 16.8594 15.929L10.8814 17.621C10.7467 17.6592 10.6039 17.6616 10.4678 17.6278C10.3318 17.594 10.2078 17.5255 10.109 17.4293C10.0103 17.3332 9.94054 17.213 9.90719 17.0818C9.87383 16.9505 9.87815 16.8131 9.91963 16.684L11.7457 11.001C11.783 10.8849 11.8491 10.7793 11.9384 10.6934C12.0278 10.6074 12.1379 10.5438 12.2586 10.508L18.1647 8.75702C18.2988 8.71733 18.4413 8.71324 18.5776 8.74524C18.7138 8.77724 18.8385 8.84408 18.9384 8.93872C19.0383 9.03336 19.1097 9.15227 19.1451 9.28278C19.1804 9.41328 19.1785 9.55053 19.1392 9.67999Z" fill="#266ED7"/>
</svg>
