<svg width="23" height="20" viewBox="0 0 23 20" fill="none" xmlns="http://www.w3.org/2000/svg">
<path d="M16.5809 1.57634e-08C15.5138 0.000178998 14.4659 0.273457 13.545 0.791771C12.624 1.31009 11.8631 2.05476 11.3404 2.94932C10.8176 2.05455 10.0564 1.30974 9.13517 0.791409C8.21392 0.273081 7.16576 -7.57651e-05 6.09838 1.57634e-08C4.46365 0.0848925 2.92588 0.772507 1.80497 1.91981C0.684065 3.0671 0.0663104 4.58575 0.0802163 6.15985C0.0802163 14.1869 11.3404 19.787 11.3404 19.787C11.3404 19.787 22.6006 14.1897 22.6006 6.15985C22.6145 4.58552 21.9965 3.06667 20.8753 1.91933C19.754 0.771995 18.2159 0.084536 16.5809 1.57634e-08V1.57634e-08Z" fill="#266ED7"/>
</svg>
