<svg width="25" height="25" viewBox="0 0 25 25" fill="current" xmlns="http://www.w3.org/2000/svg">
<path d="M12.5278 0.33197C9.25786 0.33197 6.12182 1.58102 3.80965 3.80426C1.49747 6.0275 0.198593 9.04287 0.198593 12.187C0.198593 15.3312 1.49747 18.3465 3.80965 20.5698C6.12182 22.793 9.25786 24.042 12.5278 24.042C15.7977 24.042 18.9337 22.793 21.2459 20.5698C23.5581 18.3465 24.857 15.3312 24.857 12.187C24.857 9.04287 23.5581 6.0275 21.2459 3.80426C18.9337 1.58102 15.7977 0.33197 12.5278 0.33197ZM17.1392 8.67999L15.3847 14.423C15.3483 14.5429 15.281 14.6521 15.1892 14.7405C15.0974 14.829 14.984 14.8938 14.8594 14.929L8.88142 16.621C8.74665 16.6592 8.60386 16.6616 8.46781 16.6278C8.33176 16.594 8.20776 16.5255 8.10904 16.4293C8.01033 16.3332 7.94054 16.213 7.90719 16.0818C7.87383 15.9505 7.87815 15.8131 7.91963 15.684L9.74572 10.001C9.78297 9.88486 9.84908 9.77928 9.93844 9.69336C10.0278 9.60744 10.1379 9.54381 10.2586 9.508L16.1647 7.75702C16.2988 7.71733 16.4413 7.71324 16.5776 7.74524C16.7138 7.77724 16.8385 7.84408 16.9384 7.93872C17.0383 8.03336 17.1097 8.15227 17.1451 8.28278C17.1804 8.41328 17.1785 8.55053 17.1392 8.67999Z" fill="#D3D1D8"/>
</svg>
