<svg width="28" height="26" viewBox="0 0 28 26" fill="current" xmlns="http://www.w3.org/2000/svg">
<path d="M18.5809 1.57634e-08C17.5138 0.000178998 16.4659 0.273457 15.545 0.791771C14.624 1.31009 13.8631 2.05476 13.3404 2.94932C12.8176 2.05455 12.0564 1.30974 11.1352 0.791409C10.2139 0.273081 9.16576 -7.57651e-05 8.09838 1.57634e-08C6.46365 0.0848925 4.92588 0.772507 3.80497 1.91981C2.68407 3.0671 2.06631 4.58575 2.08022 6.15985C2.08022 14.1869 13.3404 19.787 13.3404 19.787C13.3404 19.787 24.6006 14.1897 24.6006 6.15985C24.6145 4.58552 23.9965 3.06667 22.8753 1.91933C21.754 0.771995 20.2159 0.084536 18.5809 1.57634e-08V1.57634e-08Z" fill="#D3D1D8"/>
</svg>
