<svg width="14" height="14" viewBox="0 0 14 14" fill="none" xmlns="http://www.w3.org/2000/svg">
<g id="thumb_up">
<path id="Vector" d="M5.24992 12.8333H10.4999C10.9841 12.8333 11.3983 12.5417 11.5733 12.1217L13.3349 8.00917C13.3874 7.875 13.4166 7.735 13.4166 7.58334V6.41667C13.4166 5.775 12.8916 5.25 12.2499 5.25H8.56909L9.12325 2.58417L9.14075 2.3975C9.14075 2.15834 9.04159 1.93667 8.88409 1.77917L8.26575 1.16667L4.42159 5.01084C4.21159 5.22084 4.08325 5.51251 4.08325 5.83334V11.6667C4.08325 12.3083 4.60825 12.8333 5.24992 12.8333ZM5.24992 5.83334L7.78159 3.30167L6.99992 6.41667H12.2499V7.58334L10.4999 11.6667H5.24992V5.83334ZM0.583252 5.83334H2.91659V12.8333H0.583252V5.83334Z" fill="white"/>
</g>
</svg>
