<svg width="17" height="16" viewBox="0 0 17 16" fill="none" xmlns="http://www.w3.org/2000/svg">
<path d="M6.1221 14.3846H12.2442C12.8088 14.3846 13.2917 14.0577 13.4958 13.5869L15.5501 8.9773C15.6113 8.82691 15.6454 8.66999 15.6454 8.49999V7.1923C15.6454 6.47307 15.0331 5.88461 14.2849 5.88461H9.99262L10.6388 2.89654L10.6592 2.68731C10.6592 2.41923 10.5436 2.17077 10.3599 1.99423L9.6389 1.30769L5.15617 5.61653C4.91128 5.85192 4.76163 6.17884 4.76163 6.53845V13.0769C4.76163 13.7961 5.37384 14.3846 6.1221 14.3846ZM6.1221 6.53845L9.07431 3.70077L8.16279 7.1923H14.2849V8.49999L12.2442 13.0769H6.1221V6.53845ZM0.680237 6.53845H3.40117V14.3846H0.680237V6.53845Z" fill="black"/>
</svg>
