<svg width="18" height="16" viewBox="0 0 18 16" fill="none" xmlns="http://www.w3.org/2000/svg">
<path d="M9.11049 4.55768C11.6886 4.55768 13.9878 5.95037 15.1101 8.15383C13.9878 10.3573 11.6954 11.75 9.11049 11.75C6.5256 11.75 4.23322 10.3573 3.11084 8.15383C4.23322 5.95037 6.53241 4.55768 9.11049 4.55768ZM9.11049 3.24999C5.70932 3.24999 2.80473 5.28345 1.62793 8.15383C2.80473 11.0242 5.70932 13.0577 9.11049 13.0577C12.5116 13.0577 15.4162 11.0242 16.593 8.15383C15.4162 5.28345 12.5116 3.24999 9.11049 3.24999ZM9.11049 6.51922C10.0492 6.51922 10.8111 7.25152 10.8111 8.15383C10.8111 9.05614 10.0492 9.78844 9.11049 9.78844C8.17177 9.78844 7.40991 9.05614 7.40991 8.15383C7.40991 7.25152 8.17177 6.51922 9.11049 6.51922ZM9.11049 5.21153C7.42351 5.21153 6.04944 6.53229 6.04944 8.15383C6.04944 9.77536 7.42351 11.0961 9.11049 11.0961C10.7975 11.0961 12.1715 9.77536 12.1715 8.15383C12.1715 6.53229 10.7975 5.21153 9.11049 5.21153Z" fill="black"/>
</svg>
